<svg xmlns="http://www.w3.org/2000/svg" width="225" height="60" viewBox="0 0 225 60" preserveAspectRatio="xMidYMid meet" role="img" aria-labelledby="apple-app-store" class="apple-badge">
  <title id="apple-app-store">Apple App Store</title>
    <rect width="225" height="60" rx="10" ry="10" class="badge"/>
    <g class="mark">
        <path d="M61.64685,28.48775a5.79772,5.79772,0,0,1,2.7608-4.8643,5.93461,5.93461,0,0,0-4.6758-2.5278c-1.9673-.2065-3.8745,1.1772-4.877,1.1772-1.02189,0-2.5654-1.1567-4.2275-1.1225a6.22707,6.22707,0,0,0-5.2402,3.1958c-2.2657,3.9228-.5757,9.688,1.5947,12.8589,1.0859,1.5527,2.355,3.2871,4.0156,3.2256,1.625-.0674,2.2319-1.0362,4.1934-1.0362,1.9433,0,2.5127,1.0362,4.207.9971,1.7437-.0283,2.8423-1.5596,3.89011-3.127a12.84237,12.84237,0,0,0,1.77889-3.623A5.60236,5.60236,0,0,1,61.64685,28.48775Z" fill="#fff"/>
        <path d="M58.44665,19.01025a5.7083,5.7083,0,0,0,1.3057-4.0894,5.80786,5.80786,0,0,0-3.7578,1.9443,5.43165,5.43165,0,0,0-1.3399,3.938A4.8022,4.8022,0,0,0,58.44665,19.01025Z" fill="#fff"/>
        <path d="M88.75,37.40082H85.70306l-1.66952-5.246H78.23121l-1.59021,5.246H73.67395l5.74919-17.85814h3.5508ZM83.53031,29.9546l-1.51037-4.66274q-.23893-.7156-.901-3.36481h-.05314q-.2643,1.14032-.84784,3.36481L78.73444,29.9546Z" fill="#fff"/>
        <path d="M103.53437,30.80379a7.32,7.32,0,0,1-1.775,5.19214,5.19111,5.19111,0,0,1-3.94788,1.69582,3.94667,3.94667,0,0,1-3.65628-1.82814h-.05314v6.78316H91.24063V28.76335q0-2.06607-.10616-4.23949H93.6513l.15917,2.04044h.05313a5.09138,5.09138,0,0,1,8.14739-.50457A7.10486,7.10486,0,0,1,103.53437,30.80379Zm-2.91458.10481a5.3053,5.3053,0,0,0-.84784-3.09937,2.92924,2.92924,0,0,0-2.49066-1.27244,2.97151,2.97151,0,0,0-1.92047.70238,3.25478,3.25478,0,0,0-1.12643,1.84263,3.7503,3.7503,0,0,0-.13232.8728v2.14658a3.439,3.439,0,0,0,.861,2.372,2.85753,2.85753,0,0,0,2.239.96714A2.92994,2.92994,0,0,0,99.7188,34.1953,5.48929,5.48929,0,0,0,100.61978,30.9086Z" fill="#fff"/>
        <path d="M118.34561,30.80379a7.3149,7.3149,0,0,1-1.777,5.19214,5.18648,5.18648,0,0,1-3.94722,1.69582,3.94484,3.94484,0,0,1-3.65561-1.82814h-.05247v6.78316h-2.86144V28.76335q0-2.06607-.10614-4.23949h2.51682l.15916,2.04044h.05314a5.09206,5.09206,0,0,1,8.14806-.50457A7.11162,7.11162,0,0,1,118.34561,30.80379Zm-2.91458.10481a5.30072,5.30072,0,0,0-.84919-3.09937,2.92634,2.92634,0,0,0-2.48986-1.27244,2.9723,2.9723,0,0,0-1.92127.70238,3.25994,3.25994,0,0,0-1.12508,1.84263,3.78574,3.78574,0,0,0-.13233.8728v2.14658a3.44689,3.44689,0,0,0,.859,2.372,2.86,2.86,0,0,0,2.24106.96714,2.92915,2.92915,0,0,0,2.51616-1.24506A5.4903,5.4903,0,0,0,115.431,30.9086Z" fill="#fff"/>
        <path d="M134.90515,32.39347a4.75789,4.75789,0,0,1-1.58578,3.70862,7.02843,7.02843,0,0,1-4.86457,1.56351,8.52138,8.52138,0,0,1-4.62866-1.11261l.66306-2.38518a7.83584,7.83584,0,0,0,4.136,1.14012,3.90869,3.90869,0,0,0,2.51871-.72989,2.38272,2.38272,0,0,0,.89911-1.95133,2.48756,2.48756,0,0,0-.74183-1.83082,6.91338,6.91338,0,0,0-2.46369-1.38127q-4.69032-1.74943-4.689-5.12142a4.53621,4.53621,0,0,1,1.64336-3.609,6.48409,6.48409,0,0,1,4.37193-1.4069,8.666,8.666,0,0,1,4.052.848l-.71553,2.332a7.03361,7.03361,0,0,0-3.41781-.82168,3.454,3.454,0,0,0-2.3562.74237,2.11824,2.11824,0,0,0-.71553,1.61651,2.18064,2.18064,0,0,0,.82033,1.74816,9.27008,9.27008,0,0,0,2.59735,1.37872A8.81808,8.81808,0,0,1,133.82,29.29275,4.55472,4.55472,0,0,1,134.90515,32.39347Z" fill="#fff"/>
        <path d="M144.36429,26.67045h-3.153v6.25242q0,2.38451,1.66952,2.385a5.13373,5.13373,0,0,0,1.27123-.13232l.07864,2.17275a6.46951,6.46951,0,0,1-2.22522.31724,3.43252,3.43252,0,0,1-2.64982-1.03277,5.0768,5.0768,0,0,1-.95413-3.47149V26.67045H136.5222V24.52386h1.87927V22.16565l2.80978-.848v3.20619h3.153Z" fill="#fff"/>
        <path d="M158.59367,30.85626a7.066,7.066,0,0,1-1.69582,4.875,6.05627,6.05627,0,0,1-4.71776,1.96046,5.75611,5.75611,0,0,1-4.51593-1.88061,6.849,6.849,0,0,1-1.68266-4.74259,6.99464,6.99464,0,0,1,1.735-4.90134,6.00616,6.00616,0,0,1,4.67589-1.90812,5.88058,5.88058,0,0,1,4.55794,1.882A6.78435,6.78435,0,0,1,158.59367,30.85626Zm-2.9696.093a5.8,5.8,0,0,0-.76786-3.05616,2.828,2.828,0,0,0-2.56863-1.5411,2.868,2.868,0,0,0-2.62365,1.5411,5.907,5.907,0,0,0-.768,3.10984,5.79188,5.79188,0,0,0,.768,3.05482,2.9235,2.9235,0,0,0,5.166-.02617A5.80392,5.80392,0,0,0,155.62406,30.94926Z" fill="#fff"/>
        <path d="M167.893,27.04a4.95111,4.95111,0,0,0-.90166-.07864,2.70584,2.70584,0,0,0-2.33271,1.14012,4.28266,4.28266,0,0,0-.71553,2.54246v6.75686h-2.85943l.02617-8.82225q0-2.2273-.10749-4.0547H163.495l.10481,2.46369h.07864a4.39573,4.39573,0,0,1,1.43106-2.03909,3.46037,3.46037,0,0,1,2.06795-.68936,4.53012,4.53012,0,0,1,.71553.05247Z" fill="#fff"/>
        <path d="M180.68875,30.353a6.72563,6.72563,0,0,1-.10494,1.2974H172a3.73755,3.73755,0,0,0,1.24506,2.91579,4.24987,4.24987,0,0,0,2.80709.90031,9.50175,9.50175,0,0,0,3.47283-.60938l.44809,1.98676a10.75078,10.75078,0,0,1-4.31667.79537,6.24793,6.24793,0,0,1-4.70475-1.76252,6.50954,6.50954,0,0,1-1.70883-4.72957,7.3771,7.3771,0,0,1,1.59087-4.84887,5.48282,5.48282,0,0,1,4.50293-2.0654,4.79688,4.79688,0,0,1,4.21452,2.0654A6.96143,6.96143,0,0,1,180.68875,30.353Zm-2.72858-.74183a3.8894,3.8894,0,0,0-.55557-2.19905,2.49958,2.49958,0,0,0-2.28025-1.19246,2.71513,2.71513,0,0,0-2.27769,1.16629A4.25681,4.25681,0,0,0,172,29.6112Z" fill="#fff"/>

    </g>
</svg>
