<svg viewBox="0 0 111.75977 111.75977" preserveAspectRatio="xMidYMid" aria-labelledby="books-icon" role="img">
  <title id="books-icon">bookStackIcon</title>
  <path d="M40.92676,82.80176H29.95313V32.94824H40.92676Zm-9.12012-1.85352h7.2666V34.80176h-7.2666Z" transform="translate(0 0.00195)"/>
  <path d="M55.875,82.875H39v-57H55.875ZM41,80.875H53.875v-53H41Z" transform="translate(0 0.00195)"/>
  <path d="M70.125,82.875H53.875V44.625h16.25Zm-14.25-2h12.25V46.625H55.875Z" transform="translate(0 0.00195)"/>
  <path d="M78.832,82.64258,65.71094,32.95947l8.82813-2.33154L87.66113,80.31152ZM68.32227,34.48,80.35352,80.03125,85.0498,78.79,73.01758,33.24023Z" transform="translate(0 0.00195)"/>
  <rect x="35.32324" y="41.06445" width="1.85352" height="33.6875"/>
  <rect x="46.94824" y="31.93945" width="1.85352" height="30.75"/>
  <rect x="61.07324" y="50.00195" width="1.85352" height="22.375"/>
  <rect x="58.9375" y="75.5127" width="5.9375" height="1.85352"/>
  <path d="M51.86426,77.98926h-7.916V66.01074h7.916Zm-6.0625-1.85352h4.209V67.86426h-4.209Z" transform="translate(0 0.00195)"/>
  <path d="M55.87988,111.75781a55.87988,55.87988,0,1,1,55.87988-55.87988A55.94288,55.94288,0,0,1,55.87988,111.75781Zm0-109.75977a53.87988,53.87988,0,1,0,53.87988,53.87988A53.9409,53.9409,0,0,0,55.87988,1.998Z" transform="translate(0 0.00195)" opacity="0.8" style="isolation: isolate"/>
</svg>
