<svg xmlns="http://www.w3.org/2000/svg" viewBox="0 0 737.54152 307.50745" preserveAspectRatio="xMidYMid meet" role="img" aria-labelledby="governors-signature" class="gov-sig">
  <title id="governors-signature">Cuomos Signature</title>
  <g>
    <path d="M737.12363,219.68961c-.45251-2.39081-2.01373-4.66693-3.45789-6.73084-.62988-.90027-2.21924-1.10675-3.34137-1.689-3.7356-1.93854-7.30756-4.3125-11.2251-5.74719-4.04321-1.48065-8.62323-1.55725-12.58258-3.186-3.2821-1.3501-5.68591.70447-5.94879,2.22943-.55066,3.19476-2.77478,3.5769-4.7879,4.48822-4.50732,2.04034-9.05975,3.99243-13.66571,5.79675-1.516.59381-3.57208,1.32715-4.82214.76141-2.5036-1.133-4.59943-3.15015-6.90527-4.74207-2.23108-1.54034-4.36713-3.9057-6.80737-4.30493a40.7224,40.7224,0,0,0-13.27924-.03381c-3.738.64447-7.16254,2.94928-10.83453,4.201-1.78.60681-4.61182,1.40112-5.59595.54108-6.678-5.83588-13.8382-4.38641-21.27948-2.3606-2.62842.71558-6.32654,1.976-7.99677.80035-3.40906-2.39954-6.38611-4.9848-10.761-5.59778-3.735-.52338-7.34363-2.1286-11.07648-2.44214-4.74609-.39874-9.52087-.24316-14.14526,1.7251-5.63226,2.39728-11.4314,4.43109-17.24292,6.36816-3.96149,1.32037-8.06122,2.23175-12.11255,3.27386-1.92877.49609-4.02649.56342-5.80756,1.361-4.45612,1.99542-11.27582-.20483-13.57953-4.50708-2.7074-5.05609-10.11877-6.7514-13.57233-1.83752a23.13092,23.13092,0,0,1-1.74677,2.63495c-3.27258,3.49542-13.328,4.31677-18.16138,1.95618-4.50983-2.20264-6.31146-6.44623-8.59058-10.3255-1.48376-2.52545-6.11346-3.86743-8.91541-3.0047-4.0437,1.24506-2.6875,3.83472-2.70874,6.59845-.03333,4.32971,2.72668,6.62128,5.48431,8.89612,2.16693,1.78754,5.2644,2.60089,7.08521,4.6239,4.727,5.252,11.27612,4.57007,17.17334,5.90063,1.73773.392,3.78857-.45239,5.66559-.86743,2.43481-.53833,4.8631-1.135,7.24847-1.85761,1.632-.49445,3.42444-2.09064,4.72894-1.7218,3.58752,1.01428,6.87805,3.0415,10.43738,4.20538a17.44375,17.44375,0,0,0,7.7467,1.08563,126.86568,126.86568,0,0,0,15.15344-3.63751c5.77313-1.65417,11.43573-3.69427,17.21124-5.33917a4.0886,4.0886,0,0,1,3.42273.95343,22.49233,22.49233,0,0,1,3.01611,4.83173c3.24927,5.99988,8.935,8.0564,15.09149,9.05164,1.87988.30383,3.99139-.36835,5.91577-.89148,3.89044-1.05774,7.306-2.86841,9.7124-6.35217a5.86591,5.86591,0,0,1,3.25311-2.155,116.71328,116.71328,0,0,1,14.41278-2.67493c1.59985-.15765,3.91473-2.47882,5.29993.49847.47394,1.01868.37653,2.48676,1.09265,3.17249,1.68988,1.6181,1.72021,5.49481,5.25653,4.58606,2.06641-.53107,3.93628-1.88226,5.84143-2.95856.78656-.4444,1.34967-1.3324,2.15973-1.67865,2.84808-1.21747,5.72919-2.37427,8.65552-3.38727a42.89214,42.89214,0,0,1,8.067-2.3396c7.16467-.97266,12.20789,3.86212,17.081,7.69324,4.65466,3.65936,10.06427,3.05115,14.07245,1.28583,1.77472-.78162,3.1618-2.43646,4.93176-3.23749,2.60193-1.17749,5.38422-1.96021,8.10022-2.8797.98584-.3338,2.00214-.57751,3.00452-.8623-.16168,1.05328-.33295,2.10522-.47906,3.16071a1.79255,1.79255,0,0,0-.00085.93347c1.543,3.21387,1.67963,6.715,4.36969,9.856,4.11188,4.80121,9.123,5.949,14.77209,7.2168,1.72583-.40875,3.51044-.87671,5.3147-1.24969,4.22589-.87347,10.25751-6.34662,10.74994-10.38123A32.08432,32.08432,0,0,0,737.12363,219.68961Zm-150.61243.01984c-.50641.25616-1.25128.04089-1.88727.04089l-.35229.61353a35.81943,35.81943,0,0,1-4.31543-2.50555c-.34814-.26355-.12238-2.07812.04407-2.10986a41.37044,41.37044,0,0,1,7.98846-1.06421c.90588.00745,1.79834,1.63745,2.697,2.526C589.30112,218.05692,587.95469,218.97916,586.51121,219.70945Zm132.51752,9.55475c-2.48718.02631-4.25958-.97937-4.44635-4.22778q1.79672-4.08572,3.59351-8.17133c2.55042,2.06079,6.03918,3.66083,7.35034,6.33038C726.54917,225.27817,722.66306,229.22574,719.02872,229.26419Z"/>
    <path d="M535.68223,274.35965a15.49479,15.49479,0,0,0-10.93835.25647c-2.91083,1.221-5.89612,2.26367-8.84357,3.39807-2.25146.86652-4.45,1.90314-6.75214,2.59882-4.79511,1.449-9.63037,2.77142-14.476,4.0437-2.0036.52612-4.09784.70062-6.11334,1.18951-6.11377,1.48309-12.16193,3.28217-18.32666,4.496-5.07452.99915-10.287,1.28052-15.42389,1.98572-6.568.90179-13.09381,2.24884-19.68817,2.78613-8.29211.67566-16.63348.78937-24.957,1.02209-4.79614.13416-9.60022-.03326-14.39807.06378-1.25226.02527-2.53955.89514-3.73315.74792-3.25323-.40118-6.5246-1.86517-9.68219-1.60675-9.53857.78064-18.71771-1.1803-27.77643-3.35785a94.88539,94.88539,0,0,1-18.57739-7.0318,166.26517,166.26517,0,0,1-16.62244-9.76422,43.486,43.486,0,0,1-13.2998-13.29425c-2.81592-4.34991-5.59137-8.79535-5.428-14.26782a21.03978,21.03978,0,0,1,.92584-4.50018c1.11938-4.34375,1.76276-8.90771,3.56177-12.95459,2.3819-5.35779,5.61444-10.34753,8.62128-15.41235,1.16919-1.96948,2.399-4.17841,4.19543-5.41467,1.49146-1.02631,3.84344-.932,5.83307-1.07941,5.44226-.40326,10.89465-.92889,16.34265-.924a152.29306,152.29306,0,0,1,17.31952.96246,149.62248,149.62248,0,0,1,15.12708,2.87164,13.71026,13.71026,0,0,1,5.39819,2.19122,40.45416,40.45416,0,0,1,6.58417,6.528c2.199,2.73969,4.7038,1.29675,5.99829-.03448,2.67889-2.755,4.90448-5.61,8.53369-7.59479,4.33765-2.37219,7.70752-6.44666,11.75421-9.43494,4.89691-3.61615,10.10907-6.80206,15.09875-10.29712,3.75958-2.63348,7.40936-5.42676,11.05768-8.2149,1.87317-1.43158,3.54126-3.1427,5.467-4.492,5.01-3.5105,10.18549-6.78741,15.15588-10.35138,5.24518-3.76093,10.34949-7.72009,15.47394-11.64667,1.98773-1.523,3.81927-3.24908,5.79639-4.78711,5.59033-4.34894,11.85364-8.05475,16.62946-13.1579,3.72882-3.98425,8.173-3.2627,12.22119-3.96411,3.68927-.63916,7.7572,1.00824,11.67218,1.54614,5.01782.68939,10.12012.9455,15.05695,1.9953a168.28727,168.28727,0,0,1,17.08435,4.76874c3.66766,1.19574,7.66974,2.32227,10.58612,4.65155a78.10137,78.10137,0,0,1,13.301,13.30542,35.01509,35.01509,0,0,1,5.56982,12.50677c1.36066,5.35645.29736,11.26886,5.43231,15.5144,2.515,2.07947,5.48724,1.98334,7.17444-1.033,2.91766-5.21631.79718-10.18091-.32636-15.20325-1.09259-4.884-3.02539-9.67957-3.38788-14.60242a61.3198,61.3198,0,0,1,1.49487-19.10571c1.69543-7.00873,1.65778-14.46027,2.11926-21.735.273-4.30261.05-8.6366.05-12.95648l.45642-.03351c-.47064-5.88434-1.01746-11.76373-1.39416-17.65405-.57013-8.91364,1.22449-17.9165-2.69946-26.69232-2.02673-4.53271-5.6795-8.46857-10.71539-8.8728-4.0329-.32367-5.96893,2.63513-8.51141,4.5177-2.68994,1.9917-4.74426,4.82117-7.33667,6.97058-3.528,2.92517-7.45325,5.37744-10.92828,8.3587-3.22229,2.7644-6.04462,5.9906-9.0993,8.95551-8.8443,8.58429-17.74255,17.1131-26.56836,25.71619-5.09088,4.9624-9.9975,10.11639-15.15375,15.00848-2.78058,2.63824-6.02173,4.812-9.99951,5.13672-5.57513.455-11.1825.53156-16.75183,1.03729-4.46252.40533-8.89349,1.178-13.32837,1.85376-1.35968.20715-2.66992.7688-4.031.93091-3.41858.40723-6.86694.57745-10.2771,1.03754a69.3365,69.3365,0,0,0-7.91058,1.56012c-3.71332.951-7.39447,2.03857-11.05817,3.16907-3.7865,1.16833-7.54211,2.43842-11.29822,3.70264-1.81616.61127-3.58331,1.37012-5.40588,1.95959-5.30084,1.71454-10.7467,3.05963-15.89813,5.13824-6.90009,2.78412-13.5332,6.22229-20.368,9.17841-3.62793,1.56909-7.55255,2.467-11.139,4.11285-4.26947,1.95935-8.30078,4.43237-12.47064,6.6153-3.8772,2.02979-8.03516,3.61993-11.64893,6.03345-5.384,3.59576-10.48419,7.63818-15.541,11.69513-3.56055,2.85657-6.89337,6.00482-10.2323,9.12512-1.08771,1.01648-1.70148,3.17432-2.82648,3.41107-6.00867,1.26465-12.10681,2.1109-18.18378,3.038a22.37309,22.37309,0,0,1-3.35614.04138c-.74213-.00043-1.48425-.01941-2.22638-.03009a8.75027,8.75027,0,0,1,.15479-2.94183,34.43076,34.43076,0,0,1,3.18927-6.20514,129.1497,129.1497,0,0,1,8.16162-10.8407c2.71167-3.15454,5.9104-5.88525,8.78149-8.91a54.80092,54.80092,0,0,0,4.00952-5.00745c3.52142-4.71179,7.05426-9.41669,10.473-14.20258,1.18225-1.65509,2.58221-3.4375,2.9447-5.34045a145.27544,145.27544,0,0,0,1.939-15.22907,3.58021,3.58021,0,0,0-1.9386-2.87665,71.88044,71.88044,0,0,0-9.52972-.97644,2.22894,2.22894,0,0,0-1.4953,1.01892c-1.832,2.70111-3.60474,5.4433-5.354,8.19922-2.67822,4.21954-5.30066,8.47461-7.98431,12.69067-2.842,4.4649-5.75574,8.88434-8.58563,13.35681-2.097,3.314-4.05853,6.71417-6.17462,10.0155-2.17267,3.38971-4.29315,6.83411-6.74133,10.02032-2.74939,3.57819-5.8045,6.92621-8.83166,10.27948-.34229.37921-1.379.26184-2.06885.17578-4.6217-.57642-9.2594-1.79755-13.84613-1.62085-3.29639.127-6.53247,2.06757-9.77539,3.254-2.68512.9823-5.26892,2.3819-8.03107,2.97174-2.4826.53021-5.17719-.00977-7.72015.34216-1.71814.23773-3.30176,1.31848-5.00513,1.81952-3.41083,1.00336-6.83051,2.02954-10.31146,2.71826-1.63806.3241-3.42633-.11084-5.14648-.20178.25092-1.39435.1861-2.9527.80963-4.15356,2.21179-4.2594,4.86194-8.2981,6.9541-12.61053,1.78326-3.67572,3.00348-7.62262,4.51849-11.43134.90948-2.28656,1.97473-4.51233,2.85114-6.81073,2.22052-5.82355,4.43195-11.65186,6.53125-17.51965,1.15-3.21436,1.99652-6.53632,3.10413-9.76715,1.36615-3.98492,2.83112-7.93713,4.32745-11.87531.28931-.76135,1.08789-1.33276,1.36188-2.09583.88422-2.46313,1.65564-4.9679,2.42828-7.46967.82733-2.679,1.61914-5.36914,2.40424-8.06091,1.18256-4.05481,2.289-8.13287,3.53546-12.16779.97308-3.1499,2.19714-6.223,3.14728-9.37909.83295-2.7666,1.40753-5.61,2.15472-8.40381,1.18219-4.421,2.50464-8.80658,3.59473-13.24963.87311-3.55853,1.433-7.19281,2.24249-10.76843.41333-1.82568,1.44946-3.57507,1.55121-5.39545.468-8.37042,1.15387-16.76868.87476-25.12732A73.13257,73.13257,0,0,0,258.192,9.09439c-.92627-3.197-2.43939-7.15381-6.44916-8.1095a42.20839,42.20839,0,0,0-9.93689-.984,6.05676,6.05676,0,0,0-4.087,2.029c-4.70172,5.7002-9.0675,11.67767-13.77362,17.374-2.379,2.8797-5.28223,5.32031-7.85394,8.04852-2.85724,3.03113-5.54388,6.22357-8.41553,9.24042-7.28546,7.65393-14.56238,15.31848-21.98773,22.83563-3.27191,3.31232-7.03735,6.13611-10.32257,9.43658-3.79468,3.81238-7.20508,8.00592-10.97638,11.84332-2.68872,2.7359-5.80859,5.04547-8.53076,7.75177-2.42676,2.41266-4.4292,5.25446-6.874,7.646-3.80585,3.723-7.93854,7.113-11.723,10.85608-3.02942,2.99628-5.60229,6.45465-8.63672,9.44519-4.64447,4.57739-9.57489,8.86328-14.2677,13.39337-5.2713,5.0885-10.41406,10.3103-15.61035,15.4765-.335.333-.66779.67133-.9704,1.03326-3.25269,3.8902-6.35638,7.91785-9.79877,11.63171-2.19141,2.36426-4.95312,4.18939-7.33,6.39539-2.36792,2.19775-4.62421,4.52252-6.84125,6.87482-3.996,4.23987-7.73248,8.74408-11.93353,12.76587-5.10614,4.88818-10.78467,9.18365-15.827,14.13153-3.60944,3.54175-6.42,7.8844-9.88837,11.58752-2.58765,2.76282-5.8222,4.91211-8.48157,7.61688q-13.1716,13.39673-26.06738,27.062a7.09526,7.09526,0,0,0-1.608,4.55524c.04437,4.05145,3.55017,6.00146,5.93658,8.59778a1.18584,1.18584,0,0,0,1.11755.13873c2.51135-1.45483,5.63806-2.31036,5.355-6.31177a5.15073,5.15073,0,0,1,1.59509-3.20038Q22.31293,239.237,30.82108,230.404a2.46266,2.46266,0,0,1,2.14142-.2124c3.17462,1.20294,6.29083,3.62469,9.43329,3.63391,7.30878.02142,14.63458-.9726,21.92767-1.78668,6.89-.769,13.74915-1.81879,20.61761-2.77563,2.89233-.403,5.80908-.72693,8.65179-1.36652,4.453-1.00177,8.85437-2.234,13.274-3.38245,2.43152-.6319,4.99945-2.14777,7.25464-1.769a89.424,89.424,0,0,1,16.07959,4.26782c3.85284,1.42224,7.22559,4.094,10.96436,5.893,2.86243,1.37738,6.11469,1.96686,8.92694,3.42194,6.8075,3.52234,13.35693,7.55225,20.22058,10.95337a36.97813,36.97813,0,0,0,9.9527,2.88873c5.26605.92841,10.09692-1.90918,11.15411-5.74353a86.3578,86.3578,0,0,1,3.40271-9.46149c1.97614-4.86475,4.01154-9.70978,6.199-14.482.76556-1.67029,1.75018-3.97388,3.16473-4.46649,3.353-1.16766,7.01569-1.4718,10.5672-2.03693,4.25616-.67719,8.51477-1.39526,12.80048-1.78839a4.33275,4.33275,0,0,1,3.07391,1.70142c3.79016,4.886,7.75549,9.8252,14.574,9.48688a29.152,29.152,0,0,0,12.00336-3.12628c4.50262-2.41223,8.15173-6.36981,12.50836-9.124,1.93665-1.22424,4.81311-3.53235,7.07324-.2356,1.85583,2.707,4.4032,3.22662,7.266,3.04236,2.70471-.17407,5.394-.59723,8.08783-.929,2.6145-.3219,5.22186-.71,7.84192-.975a11.23382,11.23382,0,0,1,2.37476.25586,13.28318,13.28318,0,0,1-.93073,2.36835c-1.48193,2.35919-3.28784,4.54364-4.533,7.015a63.05516,63.05516,0,0,0-3.24384,8.40186c-1.26459,3.77722-2.77094,7.54132-3.41937,11.43658-.57532,3.45544-.25757,7.08978-.06537,10.63055.10236,1.88538.29419,4.05493,1.27661,5.55029,3.19049,4.85608,6.32574,9.87775,10.302,14.05542a149.32037,149.32037,0,0,0,16.2547,14.35c2.98108,2.334,6.70538,3.73657,10.14075,5.46716,2.94708,1.48468,5.91376,2.94922,8.95581,4.22211,4.3186,1.80707,8.65649,3.60449,13.09668,5.07141a90.80209,90.80209,0,0,0,9.41223,2.12555c4.25189.91571,8.472,2.09595,12.77191,2.63635,3.67377.46173,7.45764-.02228,11.16211.28381,4.04871.33447,8.04749,1.32513,12.09662,1.58618,2.45691.15839,4.96332-.73291,7.45544-.78638,6.01575-.12891,12.03662-.00665,18.05414-.08514a7.47506,7.47506,0,0,0,2.48291-.90607c.44415-.18433.86-.64484,1.28314-.63812,3.194.05023,6.39789.39661,9.576.22687,2.48608-.13275,4.92261-1.10156,7.4118-1.28827,3.6369-.27283,7.343.145,10.94409-.31812,4.94037-.63544,9.77307-2.19794,14.71857-2.68036,7.33234-.71527,14.555-1.409,21.65692-3.76984,5.82452-1.93622,12.09644-2.482,18.05847-4.06421,4.42908-1.17535,8.66473-3.06689,13.01392-4.55975,4.006-1.37512,8.03857-2.67578,12.08051-3.942,1.39929-.43835,3.655-.23639,4.12976-1.09521a12.8536,12.8536,0,0,0,1.3197-6.13043A4.041,4.041,0,0,0,535.68223,274.35965Zm-21.565-149.67389c3.83612-3.31293,7.90985-6.3689,11.57922-9.85278,6.19141-5.8783,12.14154-12.01074,18.18774-18.04181,3.23242-3.22443,6.35767-6.56506,9.72327-9.64331,1.49017-1.36292,3.65955-1.97931,5.16382-3.33142,3.06757-2.75714,5.78479-5.90363,8.84717-8.667,3.475-3.13568,7.13641-6.07178,10.86084-8.9054a4.7453,4.7453,0,0,1,2.52625,2.24182,43.31974,43.31974,0,0,1,.57556,6.87036l.20087-.031c-.19946,2.88525-.53961,5.77032-.54242,8.6557-.00153,1.57483.82263,3.14758.83881,4.72571.08862,8.63232.16333,17.26831.00269,25.89856-.12183,6.54333-.37848,13.10211-1.02094,19.61-.31,3.14-1.65228,6.177-2.51257,9.26471a6.662,6.662,0,0,0-.241,1.38361c-.05377.91034-.05249,1.824-.074,2.73621a24.02065,24.02065,0,0,1-3.32812-1.59363c-4.28345-2.89868-8.21973-6.48859-12.82678-8.68555a100.441,100.441,0,0,0-18.19434-6.39465c-5.82727-1.49762-11.89429-2.1051-17.88013-2.92706-3.64185-.50006-7.3313-.64783-10.99524-.99689a8.74325,8.74325,0,0,1-1.70239-.51672C513.56742,125.87546,513.6655,125.07584,514.11723,124.68576ZM330.29777,193.891c1.41534-1.02618,2.92462-1.92236,4.34491-2.94214,4.81989-3.46082,9.461-7.20093,14.47125-10.35675a118.90678,118.90678,0,0,1,13.66455-7.1413c7.70374-3.55127,15.5365-6.82166,23.29285-10.26013,4.32648-1.918,8.58142-3.99854,12.92133-5.88422,2.3468-1.01971,4.79181-1.82123,7.21521-2.65521q6.6264-2.2804,13.28357-4.47076c1.30518-.42914,2.66913-.67572,3.98914-1.0639,5.60962-1.64978,11.14093-3.647,16.8363-4.90344,7.292-1.60864,14.72748-2.55621,22.07526-3.92737,4.15088-.77454,8.23218-1.92236,12.38312-2.69641,1.22968-.22937,2.58978.24091,3.89008.39056a13.20386,13.20386,0,0,1-1.98517,2.94781c-3.15192,2.70245-6.33527,5.3902-9.69708,7.82025-4.68164,3.384-9.55157,6.50616-14.30811,9.788-3.55664,2.45392-7.07593,4.96271-10.58582,7.4834-5.88544,4.22662-11.7475,8.48584-17.62488,12.72375q-3.40924,2.4581-6.84332,4.88184c-5.42206,3.81708-10.90009,7.55682-16.26514,11.45245-4.05658,2.94556-7.94684,6.11951-11.98315,9.09412-.55322.40771-1.52338.24957-2.73962.41211-3.47723-1.29932-7.25946-2.815-11.11456-4.11432a41.03,41.03,0,0,0-7.006-1.73407c-9.15643-1.36572-18.18195-4.00806-27.60315-2.92853-3.22028.369-6.44769.7356-9.68188.88306-.8537.03894-1.74475-.74176-2.61865-1.14606A15.39991,15.39991,0,0,1,330.29777,193.891ZM87.04246,217.79856a33.22714,33.22714,0,0,1-4.66638.9892q-9.47543,1.44479-18.96362,2.805c-2.84357.40448-5.70392.69128-8.19568.98846a17.70955,17.70955,0,0,1-2.74969-.04388,1.23405,1.23405,0,0,1-.76746-.91876,1.24879,1.24879,0,0,1,.76984-.90021c2.56891-.696,5.20422-1.17212,7.73511-1.97925,8.65369-2.76007,17.64343-2.23157,26.51654-2.8302a7.11077,7.11077,0,0,1,2.09729.52356C88.231,216.90281,87.7111,217.595,87.04246,217.79856Zm102.275,3.228c-3.81586,4.37933-4.88495,9.95648-7.0434,15.045-1.43213,3.37653-4.31653,1.90985-6.30048,1.60345a30.32359,30.32359,0,0,1-8.38-3.115c-4.82324-2.35937-9.446-5.13428-14.29919-7.425-3.69806-1.74554-7.66663-2.90833-11.434-4.51965-3.46851-1.48352-6.858-3.16364-10.21222-4.89294a3.94174,3.94174,0,0,1-1.37512-1.89087c1.05676-1.02435,2.14868-2.30792,3.47382-2.69708a68.759,68.759,0,0,1,7.98236-1.43866q.0304.25159.06067.50323c5.57446.27209,11.343-.26367,16.67517,1.01721,6.93707,1.6665,13.82349,1.46228,20.77447,1.79071a49.1237,49.1237,0,0,1,10.36542,2.03113C189.88737,217.1146,190.05344,220.18186,189.31748,221.02652Zm13.54724-30.11774c-.41766,1.03223-1.34406,1.84937-1.83533,2.86291-1.309,2.70056-2.31,5.57471-3.85742,8.12238-.55774.91821-2.28021,1.34039-3.54736,1.572a39.4771,39.4771,0,0,1-7.83014.90948q-11.3703-.23877-22.72766-.9671c-2.11407-.13428-4.1604-1.12927-6.27509-1.53522a34.4121,34.4121,0,0,0-4.15155-.22705c-4.93457-.33105-9.96484-1.4422-14.77655-.82849-5.74878.73328-11.41772,2.25385-16.47308,5.905a18.87849,18.87849,0,0,1-10.63293,3.2348c-4.93616-.057-9.83417-1.78882-14.78717-2.55286-3.6485-.56287-7.35345-.81635-11.04352-1.03455a45.33182,45.33182,0,0,0-7.96887.02472c-6.88837.81726-13.75031,1.86163-20.61505,2.86786-1.19183.17468-2.33185.70532-3.5238.876a6.23569,6.23569,0,0,1-1.98859-.37958c.37-.48425.70612-.99933,1.1153-1.44788,3.05737-3.35162,5.949-6.88184,9.245-9.9812,3.60522-3.39008,7.662-6.29535,11.36932-9.584,1.39679-1.23907,2.20691-3.12524,3.56079-4.42969,3.575-3.44452,7.43262-6.60114,10.93347-10.11566,4.27264-4.28937,8.20618-8.91571,12.45978-13.22516,2.73639-2.77228,5.93256-5.09119,8.66406-7.86774,6.44257-6.549,12.7041-13.27563,19.09119-19.87982,3.58075-3.70251,7.32507-7.24738,10.88647-10.96783,3.29559-3.44281,6.26062-7.21991,9.71008-10.49268,3.6933-3.50409,8.02661-6.34351,11.64484-9.91449,6.32709-6.24445,12.28217-12.864,18.46729-19.25452,4.4248-4.57178,8.8551-9.15,13.50085-13.49237,3.4679-3.24139,7.43884-5.947,10.882-9.21155,1.82941-1.73456,2.76422-4.39508,4.54382-6.2038,2.89691-2.94415,6.37555-5.32428,9.20947-8.32013,4.24432-4.48676,8.10614-9.33325,12.20734-13.95874,1.53558-1.732,3.34131-3.22162,4.92761-4.91211,3.83362-4.08569,7.58569-8.248,11.4328-12.32074a15.51147,15.51147,0,0,1,2.56775-1.81421c.46106,1.07227.92212,2.14459,1.52557,3.548.3457,6.27844.96893,12.92224,1.00226,19.569a135.13873,135.13873,0,0,1-1.01209,18.5152c-.59564,4.46179-2.381,8.75824-3.5412,13.15344-.7782,2.948-1.32922,5.95575-2.0943,8.90759-.78607,3.03314-1.73395,6.024-2.56427,9.04614-.76306,2.77722-1.35352,5.60663-2.22467,8.348-.79669,2.507-1.984,4.88947-2.78876,7.39441-1.08667,3.38251-1.80389,6.88879-2.98114,10.2359-2.02277,5.75122-4.3631,11.39063-6.38947,17.14062-.68085,1.93195-.62085,4.118-1.24115,6.0799-.81671,2.58295-2.00751,5.04535-2.96686,7.58618-.66663,1.76569-1.14825,3.60181-1.82989,5.361-1.10895,2.862-2.38037,5.6618-3.46021,8.53406-1.14337,3.04132-2.04138,6.17676-3.23315,9.19745-1.30249,3.30145-2.89417,6.48816-4.22461,9.77948C207.0579,180.12455,205.03458,185.5463,202.86472,190.90879Zm43.24933,21.13251c-.55353.13458-1.24261-.28815-1.87018-.45807.94287-.62531,1.8858-1.25061,2.76056-1.83075,1.17786.42377,1.91333.68835,2.6488.95294A28.03891,28.03891,0,0,1,246.11405,212.04129Z"/>
  </g>
</svg>
