<svg xmlns="http://www.w3.org/2000/svg" viewBox="0 0 111.8 111.8" preserveAspectRatio="xMidYMid" aria-labelledby="down-arrow-icon" role="img">
<title id="down-arrow-icon">Down Arrow Icon</title>
<g>
	<path d="M55.9,2c29.7,0,53.9,24.2,53.9,53.9s-24.2,53.9-53.9,53.9S2,85.6,2,55.9S26.2,2,55.9,2 M55.9,0C25,0,0,25,0,55.9
		s25,55.9,55.9,55.9s55.9-25,55.9-55.9S86.8,0,55.9,0L55.9,0z"/>
</g>
<g>
	<path d="M56,72.1c-0.6,0-0.7,0-0.9-0.2c-0.3-0.3-2.5-2.6-17.9-19c-0.4-0.4-0.4-1,0-1.4c0.4-0.4,1-0.4,1.4,0l16.1,17.2V26.9
		c0-0.6,0.4-1,1-1s1,0.4,1,1v41.8l16-16.8c0.4-0.4,1-0.4,1.4,0l0,0l0,0c0,0,0,0,0,0c0.2,0.2,0.3,0.4,0.3,0.7s-0.1,0.5-0.3,0.7
		C59.5,68.9,57,71.4,56.6,71.9C56.5,72.1,56.3,72.1,56,72.1z M74,52.2l-0.3,0.4c0,0,0,0,0,0l0,0L74,52.2z"/>
</g>
<path class="st0" d="M27.5,69.3"/>
<path class="st0" d="M83.5,69.3"/>
<path d="M76.5,82.3h-42c-4.4,0-8-3.6-8-8v-7h2v7c0,3.3,2.7,6,6,6h42c3.3,0,6-2.7,6-6v-7h2v7C84.5,78.7,80.9,82.3,76.5,82.3z"/>
</svg>
