<svg xmlns="http://www.w3.org/2000/svg" width="225" height="60" viewBox="0 0 225 60" preserveAspectRatio="xMidYMid meet" role="img" aria-labelledby="google-play" class="google-badge">
  <title id="google-play">Google Play</title>
  <g>
    <rect width="225" height="60" rx="10" ry="10" class="badge"/>
    <g class="mark">
      <g>
        <path d="M61.618,25.01154l-14.1488-8.03931a1.879,1.879,0,0,0-1.6001-.23975L57.85868,28.774Z" fill="#fff"/>
        <path d="M45.82438,42.2334a1.83289,1.83289,0,0,0,1.64478-.21246l14.15771-8.04425L57.857,30.19043Z" fill="#fff"/>
        <path d="M45.14066,17.41907a2.33265,2.33265,0,0,0-.2124,1.01947V40.55463a2.37306,2.37306,0,0,0,.19031.97046l12.0329-12.04321Z" fill="#fff"/>
        <path d="M66.97037,28.05322l-4.45111-2.52911-3.95508,3.9585L62.529,33.46454,66.97037,30.941C68.368,30.14642,68.368,28.84723,66.97037,28.05322Z" fill="#fff"/>
      </g>
      <path d="M108.28042,26.93483a5.29351,5.29351,0,1,0,5.31358,5.29341A5.21764,5.21764,0,0,0,108.28042,26.93483Zm0,8.50162a3.21629,3.21629,0,1,1,2.98754-3.20821A3.06247,3.06247,0,0,1,108.28042,35.43645ZM96.689,26.93483a5.29351,5.29351,0,1,0,5.31345,5.29341A5.21764,5.21764,0,0,0,96.689,26.93483Zm0,8.50162a3.21629,3.21629,0,1,1,2.98754-3.20821A3.06239,3.06239,0,0,1,96.689,35.43645ZM82.90026,28.559v2.24563h5.37381a4.68691,4.68691,0,0,1-1.22319,2.82724A5.50138,5.50138,0,0,1,82.90026,35.276a5.97575,5.97575,0,0,1,0-11.95041,5.72749,5.72749,0,0,1,4.05043,1.604l1.584-1.584a7.834,7.834,0,0,0-5.63443-2.2658,8.22183,8.22183,0,1,0,0,16.44193,7.51581,7.51581,0,0,0,5.73462-2.30587A7.42033,7.42033,0,0,0,90.58,29.96257a7.30781,7.30781,0,0,0-.12048-1.40354ZM139.291,30.30335a4.91972,4.91972,0,0,0-4.53159-3.36851,5.03063,5.03063,0,0,0-4.99259,5.29341,5.18,5.18,0,0,0,5.25334,5.29354,5.26536,5.26536,0,0,0,4.41111-2.34595l-1.80455-1.203a3.0232,3.0232,0,0,1-2.60656,1.46365,2.69274,2.69274,0,0,1-2.56662-1.604l7.07817-2.92743Zm-7.21831,1.7646a2.90329,2.90329,0,0,1,2.76687-3.08786,2.04981,2.04981,0,0,1,1.9651,1.12288Zm-5.75479,5.133h2.32591V21.64142h-2.32591Zm-3.80972-9.0831H122.428a3.66828,3.66828,0,0,0-2.78716-1.183,5.29827,5.29827,0,0,0,0,10.587,3.609,3.609,0,0,0,2.78716-1.203h.08015v.76194c0,2.02521-1.08268,3.10789-2.82724,3.10789a2.92886,2.92886,0,0,1-2.66668-1.88482l-2.02521.84222a5.04461,5.04461,0,0,0,4.6919,3.12793c2.727,0,5.03292-1.604,5.03292-5.51408V27.25557H122.5082Zm-2.66668,7.31863a3.21966,3.21966,0,0,1,0-6.41629,2.983,2.983,0,0,1,2.82711,3.22812A2.95813,2.95813,0,0,1,119.84152,35.43645Zm30.34462-13.79478h-5.56486V37.20093h2.32205V31.306h3.24281a4.83942,4.83942,0,1,0,0-9.66433Zm.06,7.499h-3.3028V23.80715h3.3028a2.66731,2.66731,0,1,1,0,5.33349Zm14.35237-2.23443a4.36036,4.36036,0,0,0-4.14365,2.382l2.06181.86077a2.20038,2.20038,0,0,1,2.1218-1.14105,2.23611,2.23611,0,0,1,2.44216,2.00169v.16018a5.13744,5.13744,0,0,0-2.42211-.60052c-2.22187,0-4.4838,1.22108-4.4838,3.50305a3.59445,3.59445,0,0,0,3.86324,3.4229,3.27622,3.27622,0,0,0,2.96265-1.52128h.08v1.201h2.2419V31.20991C169.3225,28.44752,167.26069,26.90621,164.59849,26.90621Zm-.28028,8.52726c-.7607,0-1.82159-.38023-1.82159-1.32114,0-1.20092,1.32114-1.66142,2.46219-1.66142a4.13746,4.13746,0,0,1,2.1218.52049A2.81521,2.81521,0,0,1,164.3182,35.43347Zm13.17136-8.187-2.66233,6.74574h-.08015l-2.76227-6.74574h-2.50215l4.14353,9.4281-2.362,5.2445h2.422l6.38555-14.6726Zm-20.918,9.95444h2.32193V21.64167h-2.32193Z" fill="#fff" />
    </g>
  </g>
</svg>
