<svg xmlns="http://www.w3.org/2000/svg" viewBox="0 0 178.27727 194.73563" aria-labelledby="mta-logo" preserveAspectRatio="xMidYMid meet" class="mta-logo">
  <title id="mta-logo">MTA logo</title>
  <path d="M115.02142,81.72185l-10.55058-.89523v55.67476l-15.72128,2.75717-.02583-59.80892L75.35216,78.27181V56.34518l39.66926,6.8923Zm29.941,47.73378-9.3242,1.60487-1.099-8.1221-9.08237,1.18871-1.13985,8.92423L112.29351,135.167l11.90489-70.20291,11.29854,1.94384Zm-12.08137-20.22312-2.4926-21.43729h-.55467l-2.52746,21.77006Zm-97.75751-5.0443h0m45.78963,90.54741A97.36781,97.36781,0,1,0,0,43.18933l26.98621,4.739,7.42612,56.51075c.02583-.10331.53475-.03358.53475-.03358l8.14638-53.673,27.01236,4.70225v87.10671L53.05607,145.514V108.08367s.6384-16.1225.26146-18.88123a3.16567,3.16567,0,0,1-.74485-.04078L42.39437,147.414l-16.9293,2.96665L13.0158,87.62963l-.74145-.05011c-.27516,2.27035.90889,21.9646.90889,21.9646v42.98265L2.04282,154.46906A97.23041,97.23041,0,0,0,80.91319,194.73563Z"/>
</svg>
