<svg xmlns="http://www.w3.org/2000/svg" viewBox="0 0 338.97883 201.02788" preserveAspectRatio="xMidYMid meet" class="icon" role="img" aria-labelledby="">
  <title id="">Asset 1</title>
  <g>
    <path d="M199.06383,183.7654a13.58722,13.58722,0,0,0,1.70615-2.24168,3.01539,3.01539,0,0,0,.27829-2.199c-1.55536-3.55055-1.31347-4.42566,2.09883-6.30437a6.74792,6.74792,0,0,1,.84183-.457c2.06716-.77672,2.36632-1.88383,2.17449-4.28846a92.75265,92.75265,0,0,1,.54708-15.23211c.061-.709,1.93475-1.8957,2.73889-1.73162a3.43877,3.43877,0,0,1,1.9452,2.664c.03817,2.61946-.48845,5.2421-.68556,7.87143-.20988,2.79973-.23566,5.55428,1.27579,8.14916.88188,1.514.25144,2.99561-1.11315,4.00519-1.53627,1.13662-3.16452,2.14888-4.85829,3.2861.34884,1.36288.71213,2.78227,1.13319,4.42727,7.32444-2.74456,14.98959-2.87443,22.63449-3.44457,3.50631-.26147,6.92326-1.76859,10.37191-2.74219,3.4706-.9798,6.81325-2.12139,10.30069.39916,1.07622.77786,3.0861.29183,4.66983.33076,1.27682.03138,2.56374-.11631,3.83191-.0117,2.81432.23219,4.03251,2.38093,2.39385,4.67186a10.74557,10.74557,0,0,1-4.20888,3.36c-2.75546,1.23151-5.73806,1.94452-8.59122,2.97-4.2658,1.53325-8.49463,3.169-12.75536,4.71669a28.92465,28.92465,0,0,1-3.89795,1.1411c-12.67953,2.6682-25.35617,5.353-38.06634,7.86778a4.39738,4.39738,0,0,1-3.72-1.163,4.16116,4.16116,0,0,1,.14221-3.86795c2.6877-3.72327,2.159-8.16365,3.087-12.25589.14087-.6213-.89763-1.82518-1.67235-2.28913-6.16819-3.69393-12.3953-7.29006-18.62438-10.88145-2.41912-1.39475-5.03244-2.51335-5.9596-5.55084-.12973-.425-.93552-.78618-1.48975-.91717a12.7012,12.7012,0,0,1-9.98479-11.85939,10.21059,10.21059,0,0,1-.01207-1.67808c.36825-2.95354-.65269-4.95076-3.68344-5.7703a3.92809,3.92809,0,0,1-2.00354-1.254c-2.22368-2.9295-5.44872-3.17751-8.6445-3.20826-11.75714-.11316-23.51546-.1196-35.27337-.13263q-46.91266-.052-93.82534-.067c-2.39769-.00082-4.795.15312-7.19322.18735-2.89434.04132-4.60459-1.31679-4.774-4.20284a60.51952,60.51952,0,0,1,.04479-10.2985c.145-1.282,1.61882-2.68746,2.83783-3.52724,5.554-3.82625,11.23324-7.47081,16.86582-11.18315a1.77608,1.77608,0,0,0,.56348-.44c2.16682-3.5071,4.67889-6.63832,8.56649-8.42129.281-.12888.43589-1.248.20636-1.65982a11.39679,11.39679,0,0,1-.80663-9.00255,13.10483,13.10483,0,0,1-1.95457-.3473,5.30629,5.30629,0,0,1-1.89372-.93446c-2.22115-2.06052-1.32616-9.9056,1.41621-11.14948,7.34468-3.33136,15.01707-5.458,23.16909-5.29844,6.03583.11816,12.15158-.3636,17.99832,1.62109,2.14865.72937,4.11635,1.97637,6.22715,2.83908,1.08836.44482,2.50257,1.0865,3.43718.74076,3.97386-1.47,8.00066-1.2,12.08577-1.08766a27.62572,27.62572,0,0,0,6.32389-.74992c3.93911-.82284,7.733-1.86259,10.61581-5.13628a18.54853,18.54853,0,0,1,5.44229-3.85745,11.38081,11.38081,0,0,1,4.756-1.1476c1.8027-.05542,2.29395-.71815,1.944-2.32868a6.29861,6.29861,0,0,0-.24308-.92715c-1.7793-4.62621-1.58528-8.89278,2.14626-12.60171a6.2829,6.2829,0,0,0,.84435-1.951c-4.11214.29256-5.77884-.64927-6.8378-3.65488-1.14067-3.23753-.40021-5.31924,2.96008-7.449,4.77908-3.029,10.0189-5.38636,13.957-9.61533a9.85517,9.85517,0,0,0,1.31982-2.3638c.95209-1.89828,1.43265-4.29916,2.89346-5.63031,6.4805-5.90527,12.64543-12.23662,20.46179-16.51362A28.47768,28.47768,0,0,1,170.0284.76975C182.32678.87961,194.6308.25359,206.93421.011A21.90019,21.90019,0,0,1,213.316.60249c3.62319,1.03835,4.94522,4.31491,3.567,7.80582-.24289.61523-.59877,1.51819-.339,1.94709,2.12955,3.51676-.2872,6.6689-.78665,9.93805-.08539.55886-1.696,1.33651-2.471,1.21008-.76267-.12441-1.53312-1.1778-1.96664-1.99952a3.32749,3.32749,0,0,1,.0648-2.11433c.55159-2.15119.97978-4.11437.04928-6.45-.575-1.44336.34947-3.48414.68128-5.82444-1.86154-.061-3.8677-.24276-5.86484-.17163-7.9853.2844-15.9659.70788-23.95212.95544a76.71249,76.71249,0,0,1-11.74567-.14032c-6.54608-.81088-12.01377,1.54481-16.93871,5.26705-4.902,3.70488-9.529,7.7963-14.06052,11.95368-1.23823,1.136-1.65328,3.14487-2.53018,4.70594-.86376,1.53768-1.51138,3.43353-2.81761,4.442-4.08855,3.15639-8.44364,5.9675-12.69451,8.91372-1.00928.69951-2.015,1.40419-3.40525,2.37349a5.61267,5.61267,0,0,0,1.29463.42383c4.85-.28131,7.63705,3.54989,5.84329,8.0966a5.52,5.52,0,0,1-1.18652,2.0615c-2.63326,2.4026-2.62991,5.16349-1.51813,8.26671a11.38047,11.38047,0,0,1,.49008,3.77736c-.00009,3.54759-2.005,5.80822-5.56907,5.88144-4.69975.09658-7.41573,3.43687-10.6876,5.95239a17.08215,17.08215,0,0,1-4.30216,2.63539,36.3131,36.3131,0,0,1-6.93782,1.7585c-2.48924.38851-5.03665.39572-7.556.60205-3.07038.25146-6.21839.19679-9.18534.8983-3.311.78284-6.0939.60037-8.699-1.72684a7.14614,7.14614,0,0,0-3.12183-1.661c-12.33332-2.57313-24.54776-2.66809-36.42928,2.20276a3.3391,3.3391,0,0,0-1.71219,1.80121c-.375,1.12489.0724,1.97476,1.42095,2.49134,2.52659.96787,3.37608,3.13658,2.961,5.658a11.47408,11.47408,0,0,0,.9231,6.7156c1.25854,2.88965.52967,5.34722-2.25374,7.03679a19.01727,19.01727,0,0,0-6.74923,6.54328c-.91674,1.5154-2.8992,2.39793-4.42881,3.528-2.23559,1.6516-4.4628,3.31818-6.75612,4.88695a82.514,82.514,0,0,1-7.01847,4.4723c-1.30079.70862-1.91389,1.40911-1.82,2.92721.13176,2.13138.03329,4.277.03329,6.43768,1.85771,0,3.43053-.00107,5.00334.00016q63.35048.0497,126.70093.12806c3.02606.00538,6.05741.35348,9.07529.65312a10.183,10.183,0,0,1,6.89331,3.46856,7.46922,7.46922,0,0,0,2.65039,1.53652,7.68242,7.68242,0,0,1,5.03461,7.21425c.056,1.43823.05459,2.88152.18053,4.31363a7.42684,7.42684,0,0,0,6.26511,6.75793,6.05273,6.05273,0,0,1,4.75348,3.54627,7.52255,7.52255,0,0,0,2.66711,2.83869c6.51908,3.88443,13.12412,7.62423,19.68239,11.44336,2.44091,1.42143,4.42541,3.21265,4.3956,6.396Zm50.85779-2.20657c-2.87771-2.80715-6.01468-2.31359-9.24735-.99236a43.752,43.752,0,0,1-16.358,2.9902,47.75651,47.75651,0,0,0-21.41777,5.32042c-1.54206.78751-3.36274,1.02946-5.6059,1.68294v4.75689c8.25113-1.74306,16.16231-3.41,24.07116-5.08781q3.36441-.71376,6.71719-1.48209a58.84353,58.84353,0,0,0,6.00809-1.493c3.82629-1.32168,7.58145-2.848,11.38131-4.24821C246.95353,182.45934,248.47787,182.02456,249.92162,181.55883Z"/>
    <path d="M258.72156,26.83949c2.92465,0,5.42493-.15309,7.88411.09741.69765.07107,1.6009,1.21831,1.85566,2.04318,1.71483,5.55231,3.28043,11.15071,5.05356,17.28483,1.45652-5.85721,2.93326-11.15566,4.04355-16.52981.55775-2.69965,2.17-3.21845,4.42371-3.23591,2.29233-.01775,3.82046.54761,4.34294,3.28343,1.01581,5.31928,2.46879,10.55506,3.91342,16.5412,1.03421-3.48959,1.87189-6.328,2.71705-9.1641.75208-2.52379,1.70476-5.00718,2.212-7.57881.45615-2.31243,1.85522-3.04221,3.86-3.01755,1.9263.02369,3.84981.27657,6.06425.45165-2.30924,7.89805-4.45087,15.23719-6.60211,22.5735-.83086,2.83336-1.7823,5.636-2.48833,8.49955-.40512,1.64329-1.20492,2.51868-2.8887,2.61128-.7152.03933-1.42488.22111-2.13885.23312-4.03327.06784-4.59451-.35613-5.55691-4.20277a132.4639,132.4639,0,0,0-3.76559-13.18043c-1.03937,4.12248-2.0932,8.24139-3.11438,12.36837-1.18236,4.77836-2.55814,5.63244-7.53258,4.87711a3.432,3.432,0,0,1-3.29974-2.78733C264.88067,47.86807,261.89245,37.7745,258.72156,26.83949Z"/>
    <path d="M218.48479,45.1818c0-5.27015.10367-10.54341-.05416-15.80882-.05818-1.94092.79586-2.55821,2.41683-2.76313.31705-.04008.63681-.06121.95593-.08175,5.37727-.346,5.82683.06915,5.8268,5.377-.00006,8.71978-.04893,17.44006.041,26.15891.0179,1.73245-.57026,2.36568-2.21262,2.65629-4.53168.80183-6.44339.03881-8.9388-3.86548q-4.13288-6.46624-8.27442-12.92694c-.40651-.6327-.87473-1.22575-1.75311-2.44718,0,5.91329-.10644,11.07734.05253,16.23322.06331,2.05349-.59471,2.98006-2.59636,3.04079-.55663.01689-1.10917.16075-1.666.18114-4.40679.16135-4.91786-.32925-4.91786-4.67078,0-8.95976.06558-17.92039-.05228-26.8786-.02512-1.90933.74827-2.5283,2.38708-2.79043,4.54734-.72738,6.22638.0066,8.72287,3.91564q4.75247,7.44149,9.50836,14.88078Z"/>
    <path d="M242.58833,69.06988c13.32683.0212,17.51274,9.22187,16.49687,20.35431-1.09333,11.98125-9.32276,15.54168-19.24023,14.59805-8.90607-.84739-13.2549-5.29467-14.214-14.25016a29.62891,29.62891,0,0,1,.303-8.56C227.48658,73.029,233.28748,68.93332,242.58833,69.06988Zm-8.4167,17.66162A58.53778,58.53778,0,0,0,236.241,93.85a6.127,6.127,0,0,0,5.95834,3.70036,6.368,6.368,0,0,0,6.20763-3.72981,16.05936,16.05936,0,0,0,.03463-14.31831,6.37464,6.37464,0,0,0-6.16515-3.80512,6.17617,6.17617,0,0,0-6.10746,3.854A60.0115,60.0115,0,0,0,234.17163,86.7315Z"/>
    <path d="M292.664,103.278a58.73559,58.73559,0,0,1-7.95706.25638,5.01711,5.01711,0,0,1-3.08329-2.15866c-1.82057-2.71129-3.28151-5.66153-5.03306-8.42319a11.07844,11.07844,0,0,0-2.34677-2.06559l-.80057.47829c0,3.07454-.15454,6.15946.051,9.22019.15234,2.268-.89162,3.01425-2.85647,3.13576-.3189.01973-.63788.04039-.95713.05246-5.07126.19179-5.42646-.14239-5.4264-5.10147.00009-8.629.05021-17.25845-.04207-25.88643a2.33644,2.33644,0,0,1,2.1617-2.74651,34.07577,34.07577,0,0,1,15.431-.23835c4.06559.92632,7.30562,3.08665,8.10032,7.49687.85834,4.76323-.32312,8.8881-4.65217,11.67173-.26476.17024-.50405.38007-.88169.66787C286.98956,93.94392,289.58875,98.21937,292.664,103.278Zm-19.098-18.7717c2.90578.21021,5.50257.32966,6.94828-2.45152a3.98918,3.98918,0,0,0-.6075-4.87047c-1.81925-1.88659-4.05926-1.70919-6.34078-1.12829Z"/>
    <path d="M305.7761,84.85113q4.41057-5.92876,8.82012-11.85827c2.89157-3.89618,6.9358-4.78269,11.7206-2.36736-.93372,1.29959-1.83041,2.58016-2.76056,3.83594-2.3773,3.20959-4.72008,6.4468-7.182,9.5905a2.122,2.122,0,0,0-.03278,3.09163c3.28726,4.32327,6.457,8.73591,9.66439,13.11979.51053.69776.987,1.42045,1.48345,2.13776-4.5094,2.68024-9.5886,1.71344-12.598-2.30352q-4.45377-5.94488-8.92321-11.878a4.46136,4.46136,0,0,0-.787-.48912v9.64595a6.12065,6.12065,0,0,1-.00715.9578c-.26291,1.63934-.22169,4.511-.88693,4.68731-2.28132.6045-4.81819.34647-7.24436.199-.39021-.02372-1.01678-1.1605-1.02085-1.78611-.06469-9.90873-.12293-19.819-.0005-29.7266.03911-3.16824,2.92649-2.24059,4.58291-2.24621,1.65088-.00561,4.44513-.91849,4.542,2.289.12987,4.29929.03214,8.60544.03214,12.90866Z"/>
    <path d="M286.60073,145.68337a10.29664,10.29664,0,0,1-8.12106.44118c-.99709-.37982-1.81573-1.94988-2.17078-3.14033-.69691-2.33648-2.00476-3.04882-4.36714-2.84316a62.73823,62.73823,0,0,1-7.90066.02228,2.38682,2.38682,0,0,0-2.66991,1.73834c-.64526,1.53968-1.35853,3.62542-2.62468,4.20785-2.45464,1.12909-5.27643.82689-8.10111-.42614,1.55092-3.76,3.05736-7.42321,4.57248-11.08286,2.68386-6.48267,5.445-12.93481,8.01583-19.46194a3.76811,3.76811,0,0,1,3.91585-2.7574c.71789.00386,1.43766-.00043,2.1537-.046,2.55829-.16269,3.95364.92381,4.94323,3.41829C278.18371,125.6782,282.3727,135.503,286.60073,145.68337Zm-18.03337-21.42009c-1.273,3.25085-2.41269,6.16129-3.60062,9.1949h7.22458C270.9901,130.41038,269.86337,127.55156,268.56736,124.26328Z"/>
    <path d="M209.326,147.2582c-4.105-.18647-8.03479-.82989-11.52806-2.99865-.79323-.49247-1.744-1.83069-1.58032-2.53891a14.19146,14.19146,0,0,1,2.20969-4.30868c.11247-.17208,1.22915.3347,1.88856.49393,3.453.83386,6.88118,1.81746,10.37512,2.41493,1.69693.2902,3.4969-.37947,3.796-2.46621.29517-2.05941-1.38646-2.69407-2.93186-3.19515-2.73283-.88614-5.51682-1.61653-8.24027-2.52891-4.7521-1.592-7.26646-4.88355-7.24371-9.30913.026-5.05221,2.64226-8.62922,7.65626-10.02926a22.86408,22.86408,0,0,1,15.70351,1.00911c1.88394.82469,2.21892,2.30246,1.18926,4.58131-.95361,2.11056-1.99588,2.3142-4.09248,1.72447a38.32406,38.32406,0,0,0-7.91423-1.34561c-1.47763-.09319-3.34765.67018-3.16075,2.5145.0981.96816,1.48236,2.15786,2.55422,2.607,2.78915,1.16871,5.7543,1.90831,8.59885,2.95589,5.06969,1.867,7.27239,4.9155,7.10256,9.60129-.1759,4.85284-2.83188,8.28642-7.80639,9.695A59.48949,59.48949,0,0,1,209.326,147.2582Z"/>
    <path d="M243.5183,33.15216v6.19c2.38441,0,4.74674.08032,7.10112-.02206,2.46926-.10738,2.42344,1.61177,2.43029,3.20912.00718,1.67166.12179,3.51186-2.48443,3.41678-2.30007-.08391-4.60564-.01757-7.02378-.01757v8.42218c3.53528,0,7.03181.15523,10.5068-.05111,2.59072-.15383,2.90461,1.28325,2.919,3.227.0206,2.779-.52011,3.43534-2.937,3.439-6.46274.00983-12.92552.00335-19.56908.00335V26.49264c1.4652,0,2.95178-.00006,4.43836,0,4.87828.00023,9.75838.07918,14.63411-.032,2.48376-.05665,2.459,1.60675,2.4411,3.19087-.018,1.601.26467,3.55563-2.3823,3.5132C250.32232,33.11227,247.0506,33.15216,243.5183,33.15216Z"/>
    <path d="M316.26127,112.31476c6.86356,0,13.39579-.09045,19.92308.05,2.22615.04791,1.79007,2.11257,1.794,3.51872.0039,1.39546.02206,3.05055-2.113,3.0577-3.34875.0112-6.69756.003-10.23439.003v6.086c2.29189,0,4.58159.09051,6.861-.024,2.58715-.1299,2.55885,1.69661,2.58088,3.35322.02218,1.6644.07731,3.48741-2.534,3.34841-2.21985-.11817-4.451-.0244-6.88661-.0244V140.177c3.47464,0,6.97148.14725,10.44914-.04821,2.61926-.14722,2.884,1.358,2.8773,3.27753-.00656,1.889-.21059,3.42731-2.82867,3.36694-5.90845-.13622-11.82217-.03662-17.73369-.05071-1.00116-.00239-2.16706.2417-2.16431-1.4223C316.27006,134.44338,316.26127,123.5865,316.26127,112.31476Z"/>
    <path d="M209.86113,81.762c1.61027-2.91119,3.4418-5.78716,4.83668-8.86126,1.52682-3.36489,4.16521-3.83008,7.28747-3.45965a32.37707,32.37707,0,0,1,3.47262.81544c-.43755.86273-.722,1.49371-1.06641,2.09007a65.20421,65.20421,0,0,1-3.77711,6.38243c-4.89967,6.60461-7.36465,13.82773-6.103,22.09644.28784,1.8864-.67589,2.61442-2.33046,2.8354-.31626.04223-.63483.07043-.95317.09346-5.35365.38738-6.18945-.10141-5.77588-5.34432a24.87767,24.87767,0,0,0-4.74678-17.24057c-2.361-3.28049-4.18444-6.94783-6.24409-10.43324,3.932-2.61393,8.39678-1.67982,10.56369,2.15674C206.69258,75.846,208.27555,78.847,209.86113,81.762Z"/>
    <path d="M235.20839,118.94725c-2.673,0-5.048-.05246-7.41964.014-2.62395.07358-2.434-1.88754-2.44107-3.476-.00694-1.55285.02027-3.23574,2.47043-3.21188q11.97615.11666,23.95392-.00344c2.64369-.02933,2.51168,1.81827,2.50673,3.40628-.00507,1.62285-.02789,3.47375-2.63388,3.30368-2.29887-.15-4.61525-.03141-7.26193-.03141,0,1.00911,0,1.857,0,2.70487-.00009,7.42591-.0588,14.85262.04233,22.27715.02423,1.7792-.6731,2.45859-2.27748,2.575-.55714.04043-1.11138.12842-1.66887.15617-4.93688.24574-5.27036-.07106-5.27045-4.96488q-.00013-9.94116-.00009-19.8823C235.20842,120.95923,235.20839,120.10392,235.20839,118.94725Z"/>
    <path d="M292.86338,118.94743c-2.647,0-5.02055-.07424-7.38738.01984-2.62816.10447-2.49158-1.84643-2.49724-3.42985-.00539-1.51586-.05458-3.28047,2.42074-3.25968,8.066.06778,16.13309.05289,24.19942.00976,2.50978-.01341,2.32239,1.87067,2.31064,3.34265-.01175,1.46965.15738,3.39573-2.343,3.33029-2.3896-.06253-4.78213-.01348-7.56981-.01348,0,.98513,0,1.82117,0,2.65723-.00009,7.42764-.0547,14.856.04017,22.28241.02212,1.73326-.56335,2.52246-2.22861,2.61686-.39814.02256-.79333.09344-1.19121.12533-5.23737.42-5.75361-.04308-5.75364-5.15118q0-9.82365-.00006-19.64731C292.86341,120.97412,292.86338,120.11793,292.86338,118.94743Z"/>
  </g>
</svg>
