<svg xmlns="http://www.w3.org/2000/svg" viewBox="0 0 140 181" preserveAspectRatio="xMidYMid meet" role="img" aria-labelledby="SimplyE-logo">
  <title id="SimplyE-logo">SimplyE</title>
  <path d="M31.11913,41.99909c-.61655-.755-.66141-1.76418.264-2.07052L95.53764,18.71566a1.15615,1.15615,0,0,1,1.51893,1.09891,1.2213,1.2213,0,0,0,1.1391,1.157,6.35169,6.35169,0,0,0,1.5343.062,1.22587,1.22587,0,0,0,1.23481-1.15276s-.003-6.43121-.003-6.74825a1.22586,1.22586,0,0,0-.68278-1.11944,1.3942,1.3942,0,0,0-1.0169-.14314L27.40277,35.708c-2.76655.89512-3.25961,1.23011-3.25961,4.20217l.0235,122.1396a1.11492,1.11492,0,0,0,.04828.34608c1.48347,4.52561,6.791,6.597,6.791,6.597,5.20966,1.97738,7.895,2.52728,12.615.89,0,0,.10425-121.84736.04273-122.38315a.34311.34311,0,0,0-.28114-.29652c-.50161-.094-8.22188-.25636-12.26339-5.20411" fill="#003764"/>
  <path d="M8.30512,31.37182c-.64731-.72891-.66141-1.7646.264-2.07052L72.72362,8.08838a1.156,1.156,0,0,1,1.51894,1.09894,1.20685,1.20685,0,0,0,1.13909,1.157,7.75848,7.75848,0,0,0,1.53474.06194,1.21976,1.21976,0,0,0,1.23436-1.15276s-.003-6.21672-.003-6.61407a1.43641,1.43641,0,0,0-.60671-1.21087,1.316,1.316,0,0,0-1.093-.18586L4.58876,25.08077c-2.76655.89511-3.25961,1.23011-3.25961,4.20216l.0235,122.1396a1.21574,1.21574,0,0,0,.04828.34608c1.35016,4.51835,6.791,6.597,6.791,6.597,5.20966,1.97738,7.895,2.52728,12.615.89,0,0,.10425-121.84736.04273-122.38315a.34313.34313,0,0,0-.28071-.29652c-.502-.094-8.06251-.473-12.26382-5.20411" fill="#63a70a"/>
  <path d="M138.79773,34.62584a1.15607,1.15607,0,0,0-1.52065-1.09722L80.15885,52.50737c-14.69966,4.341-15.43585,4.84349-20.12253,3.119A13.1708,13.1708,0,0,1,54.155,51.6977c-.59646-.7708-.5986-1.76461.32686-2.07054l64.15445-21.21292a1.15617,1.15617,0,0,1,1.51893,1.09894,1.204,1.204,0,0,0,1.1391,1.157,8.53784,8.53784,0,0,0,1.52876.06153,1.21123,1.21123,0,0,0,1.24035-1.15233s-.00257-6.45942-.00257-6.63372a1.23442,1.23442,0,0,0-.68277-1.23395,1.20957,1.20957,0,0,0-1.01731-.14314L50.50144,45.40705c-2.76655.89512-3.25961,1.22968-3.25961,4.20174l.0235,119.34315c0,.11664.0047,1.27581.00256,1.39246-.07178,3.86248,4.47519,6.01249,6.63374,6.97725a17.26946,17.26946,0,0,0,12.818,1.0092l71.29663-23.154a1.15611,1.15611,0,0,0,.78147-1.0938V131.1705a1.15612,1.15612,0,0,0-1.49117-1.1062L80.13191,148.80543a1.21144,1.21144,0,0,1-1.5471-1.123V127.43962a1.15574,1.15574,0,0,1,.82162-1.1062l58.51224-19.16772c.711-.2607.87906-.38226.87906-.98983l-.04413-23.39726a1.11793,1.11793,0,0,0-1.49849-.92554L79.99323,100.8172c-.73875.21279-1.40843-.53677-1.40843-1.30586L78.672,79.18587a1.15657,1.15657,0,0,1,.80283-1.10106l58.63787-19.46918c.47812-.15338.67906-.8337.67906-1.33617Z" fill="#6d6e70"/>
</svg>
