<svg xmlns="http://www.w3.org/2000/svg" width="384.83016" height="127.68614" viewBox="0 0 384.83016 127.68614" preserveAspectRatio="xMidYMid meet" class="transitWifi-logo" aria-labelledby="transit-wifi-logo">
  <title id="transit-wifi-logo">Transit Wifi Logo</title>
  <g>
    <path d="M250.67005,79.40791H231.19224c-3.47755-19.44293-8.23178-38.66437-10.50986-58.35754-2.9925,19.68254-8.15179,38.89417-12.11531,58.38659h-.803q-9.07347,0-18.14694.01021c-.54513.00146-.78924-.11628-.929-.70913q-4.80335-20.37073-9.65769-40.72944Q174.638,19.52165,170.246,1.03459c-.05279-.22226-.084-.44964-.13565-.73142.25263-.01644.4728-.04319.69294-.04327,5.89454-.00228,11.78913.00736,17.68357-.01552.61385-.00238.81241.17675.92344.78754,2.1651,11.91086,4.40046,23.80907,6.53154,35.72594,1.38,7.71673,2.61583,15.45923,3.91791,23.1899a1.08908,1.08908,0,0,0,.18338.46869c3.33528-20.161,7.95215-40.05037,11.91475-60.10872h19.133c3.58113,19.89833,7.99632,39.66787,10.61457,59.786,2.96052-20.07994,7.21174-39.90612,11.14913-59.807h18.24132Q260.87347,39.8842,250.67005,79.40791Z"/>
    <path d="M307.95982.28567h48.313V14.95582H325.95073V32.98259h28.3104v14.62H325.92649V79.37721H307.95982Z"/>
    <path d="M384.83016,79.39416H366.87438V.30246h17.95577Z"/>
    <path d="M295.32741,54.32328H277.4225V.30824h17.90491Z"/>
    <path d="M319.1298,98.28428c1.459,1.34555,3.00724,2.69915,4.46744,4.14191,1.3234,1.30761,1.30561,1.3651.34011,2.98362-6.92319,11.60564-16.88262,19.12678-30.23825,21.52177-14.15252,2.53789-26.61836-1.373-37.26044-11.02477a44.156,44.156,0,0,1-8.94915-11.53068.79239.79239,0,0,1,.1605-1.17115c1.8031-1.61157,3.57645-3.25641,5.30911-4.84184,7.46331,11.97764,18.28721,19.24254,33.04193,19.24852C300.74451,117.61764,311.55316,110.36734,319.1298,98.28428Z"/>
    <path d="M308.69016,87.574c1.81486,1.695,3.70327,3.4391,5.55147,5.22478.137.13234.07722.61192-.04638.84912A32.2426,32.2426,0,0,1,302.98717,106.031a29.3734,29.3734,0,0,1-16.13075,4.99316c-13.33353.01958-22.934-6.2158-29.24685-17.79477a1.00277,1.00277,0,0,0-.18981-.29684c1.97809-1.7957,3.95617-3.59141,5.912-5.36687,4.996,8.40006,12.39985,13.54764,22.6808,13.54689C296.30058,101.11182,303.70377,95.97127,308.69016,87.574Z"/>
    <path d="M41.51832,45.0979c-.62489,2.20447-1.20555,4.25134-1.7853,6.29848q-3.80123,13.42233-7.58543,26.84944c-.19454.69441-.4674.95413-1.20007.9005a23.48532,23.48532,0,0,0-3.0094-.00276c-.57.03166-.74645-.2065-.86544-.70323-1.3288-5.54709-2.72214-11.07918-3.9993-16.638-.82805-3.60408-1.4929-7.24565-2.234-10.86979a1.6011,1.6011,0,0,0-.16108-.29268c-.34892,1.61555-.6138,3.14325-1.012,4.63535-2.07374,7.76953-4.18411,15.52928-6.26987,23.29563-.11161.41558-.28391.58273-.73463.56828-1.08-.0346-2.16481-.05952-3.2418.00693-.65855.04064-.87588-.21113-1.02548-.80809Q5.78068,67.90774,3.12259,57.48863,1.61669,51.54882.10953,45.60933C.07876,45.488.05678,45.3644,0,45.09762H3.24447c1.4281,0,1.41942.002,1.74375,1.40381Q7.62956,57.918,10.2733,69.334c.34364,1.49282.61893,3.00137.95206,4.63142.44517-1.9805.81022-3.84456,1.28614-5.67987,1.95414-7.53574,3.94475-15.062,5.91057-22.59474a.67131.67131,0,0,1,.78681-.60447c1.13142.036,2.26511.02753,3.39716.00338.42657-.0091.6418.104.74513.55369q2.95174,12.84621,5.9245,25.6876c.18358.79795.28325,1.6152.45477,2.61526.52485-2.30386.96109-4.42966,1.49638-6.53022,1.84621-7.24483,3.73017-14.48,5.58694-21.72218a.67317.67317,0,0,1,.78825-.60677C38.85724,45.119,40.11378,45.0979,41.51832,45.0979Z"/>
    <path d="M272.41666,78.06375c6.59815,10.46265,20.91011,10.19887,27.1707.06757,1.37114,1.27257,2.78839,2.56844,4.16985,3.9014a.81657.81657,0,0,1,.04067.73171c-2.98671,6.33807-7.82422,10.39064-14.80386,11.52446a19.30584,19.30584,0,0,1-20.69877-11.32151.91659.91659,0,0,1,.22991-1.25647C269.83894,80.52144,271.11459,79.28981,272.41666,78.06375Z"/>
    <path d="M286.54186,79.34868c-3.8551-.12093-6.69292-1.35271-8.73536-4.1078a8.85,8.85,0,0,1,1.594-12.18244,10.55269,10.55269,0,0,1,14.48582,1.10341c4.3853,4.96985,1.96126,12.69161-4.63033,14.66528A22.55349,22.55349,0,0,1,286.54186,79.34868Z"/>
    <path d="M92.351,67.7246H75.121c-.21338,3.68731,1.82576,7.772,6.85924,8.33074a16.03973,16.03973,0,0,0,7.65621-.96093c.13818-.05351.28212-.0922.499-.16219.23543.96144.49569,1.86856.6516,2.79326.03094.18353-.295.54674-.52965.63736a19.35329,19.35329,0,0,1-8.94158,1.17242,14.61308,14.61308,0,0,1-4.223-1.09547A9.70424,9.70424,0,0,1,71.529,72.18292a15.51941,15.51941,0,0,1,.94-12.20106c2.76382-5.3742,9.69318-7.52528,14.75078-4.63586,2.93977,1.67949,4.2931,4.42316,4.822,7.60824A46.47333,46.47333,0,0,1,92.351,67.7246ZM88.03888,64.4722a21.312,21.312,0,0,0-.32271-2.3431c-.576-2.2906-1.80914-4.03083-4.25029-4.59155a6.92641,6.92641,0,0,0-8.30954,6.93465Z"/>
    <path d="M127.28006,74.90928l.80124,3.35751c-1.55432.37645-3.0468.82993-4.57242,1.08618a17.2965,17.2965,0,0,1-7.12219-.13329A10.9249,10.9249,0,0,1,107.98506,69.169a16.3605,16.3605,0,0,1,1.58378-9.13782c2.93273-5.64195,10.3343-7.72622,15.39187-4.31755a10.31347,10.31347,0,0,1,4.16206,6.791,13.25759,13.25759,0,0,1,.15387,5.20061H112.26479a7.53052,7.53052,0,0,0,5.91069,8.1823,15.48048,15.48048,0,0,0,8.2743-.67211C126.69086,75.13157,126.92894,75.03906,127.28006,74.90928Zm-2.10474-10.42652c-.07886-.70252-.11405-1.33728-.22566-1.95832-.72181-4.01636-4.24647-6.1517-8.032-4.8233-2.33339.81883-3.54762,2.68676-4.28148,4.9222a18.89942,18.89942,0,0,0-.41275,1.85941Z"/>
    <path d="M71.53666,33.97546l-.37124-3.04118c-.23264.24954-.39431.41493-.54714.5881a9.42144,9.42144,0,0,1-9.86444,2.62717c-5.51887-1.89744-5.74922-8.67738-2.66989-11.88166A12.04454,12.04454,0,0,1,65.138,18.94024c1.81912-.29872,3.67019-.40278,5.52775-.596A4.8473,4.8473,0,0,0,66.31847,12.435a11.80521,11.80521,0,0,0-6.7032,1.345c-.20466.10624-.40853.214-.614.3187-.01867.00951-.04638.00126-.13454.00126-.28876-.82416-.61746-1.65941-.85341-2.52009-.04887-.17826.19045-.55193.39238-.66484a15.18171,15.18171,0,0,1,7.93264-1.853,9.02409,9.02409,0,0,1,5.883,1.93908,8.22082,8.22082,0,0,1,2.83912,6.12471c.1571,3.44036.09776,6.89018.16217,10.33537.04029,2.15422.13834,4.30736.21227,6.5142Zm-.65679-12.3969c-2.66617-.00426-5.22854.07177-7.59041,1.256a5.63922,5.63922,0,0,0-1.73425,1.3687c-1.94787,2.30762-.91348,6.1145,1.82676,6.88995a6.01316,6.01316,0,0,0,7.47784-5.08224C70.98141,24.585,70.87987,23.14008,70.87987,21.57856Z"/>
    <path d="M103.1201,33.9926H98.6393v-.94273c0-4.37419.01964-8.74854-.01529-13.12245a13.73777,13.73777,0,0,0-.33464-2.89948c-1.16413-5.14682-6.72436-5.10328-9.2785-2.70606a6.65443,6.65443,0,0,0-2.21336,5.06877q.01217,6.79284.00248,13.58572v.98706H82.28485V9.62791h3.78374l.28362,3.95324c.24582-.34.40437-.55208.55551-.76933a9.06787,9.06787,0,0,1,13.703-1.159,9.17239,9.17239,0,0,1,2.40952,6.19464c.11861,3.804.078,7.61313.09846,11.42012C103.12714,30.83053,103.1201,32.3936,103.1201,33.9926Z"/>
    <path d="M25.65111,3.78614h-10.296V.11239h25.082v3.646H30.14829V33.96516H25.65111Z"/>
    <path d="M143.04282,13.03655H139.3133v-3.414h3.72952c0-1.73332.03739-3.3991-.01866-5.06172-.022-.65243.19478-.88891.80494-1.02217,1.1689-.25529,2.31875-.5979,3.55494-.925V9.58689h6.328v3.4362h-6.28072c-.01528.3345-.03655.58492-.03668.83536-.00208,4.01528-.01785,8.03068.01149,12.04574a12.80491,12.80491,0,0,0,.28812,2.59822,2.68625,2.68625,0,0,0,2.82892,2.33128c.88955.02439,1.78286-.08839,2.78428-.14569.06721.99249.15058,2.00373.18459,3.01664.00405.1205-.24222.32113-.40461.36467a9.81465,9.81465,0,0,1-6.50687-.10223c-2.24176-.94192-3.12842-2.86754-3.37262-5.14174a33.26909,33.26909,0,0,1-.15807-3.38783c-.01838-3.835-.007-7.67018-.007-11.50528Z"/>
    <path d="M133.19424,77.94036l1.047-3.19845c1.43445.47463,2.81344,1.02008,4.23962,1.37683a6.84029,6.84029,0,0,0,4.027-.18863,3.27788,3.27788,0,0,0,2.3383-2.71018,3.228,3.228,0,0,0-1.38144-3.37774,30.21026,30.21026,0,0,0-3.13654-1.61639,34.76616,34.76616,0,0,1-3.36482-1.6836c-4.86459-3.13316-3.52231-9.39978.89137-11.4352a11.48666,11.48666,0,0,1,10.055.32074.71832.71832,0,0,1,.29614.62607c-.27365.932-.61774,1.84325-.91036,2.68351a31.2048,31.2048,0,0,0-3.6779-1.089,7.81639,7.81639,0,0,0-2.89436.08422,3.001,3.001,0,0,0-2.48651,2.53457,2.89385,2.89385,0,0,0,1.56285,3.235,26.94479,26.94479,0,0,0,3.06462,1.43343,12.67626,12.67626,0,0,1,4.58856,2.75916,6.88788,6.88788,0,0,1-1.75335,10.64573,12.19959,12.19959,0,0,1-7.19119,1.20643A12.34273,12.34273,0,0,1,133.19424,77.94036Z"/>
    <path d="M123.76669,10.5026l-1.1476,3.32236a9.46167,9.46167,0,0,0-5.40693-1.38386,3.62126,3.62126,0,0,0-3.41533,2.10349,2.78669,2.78669,0,0,0,.91345,3.51329,37.37734,37.37734,0,0,0,3.40932,1.76067,25.87425,25.87425,0,0,1,3.91271,2.11428,6.77786,6.77786,0,0,1-1.05729,11.3623c-3.27224,1.69236-6.699,1.52063-10.13945.556a13.49092,13.49092,0,0,1-1.51038-.57772c-.23412-.09729-.4501-.23825-.75226-.40155l1.11333-3.40168a10.923,10.923,0,0,0,5.43488,1.711,8.23339,8.23339,0,0,0,3.21168-.56978,3.34487,3.34487,0,0,0,.70331-5.68049,18.83662,18.83662,0,0,0-3.09027-1.691,35.50171,35.50171,0,0,1-3.82787-1.95341,6.35591,6.35591,0,0,1,.30221-10.794C116.14765,8.25779,119.92872,8.78578,123.76669,10.5026Z"/>
    <path d="M154.20522,74.74307a30.40034,30.40034,0,0,0,4.20727,1.34589,10.77961,10.77961,0,0,0,3.73076-.08211,3.123,3.123,0,0,0,2.64072-2.68624,3.3134,3.3134,0,0,0-1.52624-3.6057,20.807,20.807,0,0,0-3.10239-1.51662A12.54375,12.54375,0,0,1,155.57,65.43321a6.42137,6.42137,0,0,1,1.55109-9.94439,10.24076,10.24076,0,0,1,7.599-1.10585,19.35359,19.35359,0,0,1,3.13092,1.04075.77412.77412,0,0,1,.29288.691c-.25983.91063-.60069,1.79815-.88686,2.62011a24.97234,24.97234,0,0,0-3.68484-1.08048,8.80941,8.80941,0,0,0-3.25674.21244,3.0547,3.0547,0,0,0-.6795,5.54843c1.02289.57964,2.13585.99785,3.18446,1.53527a23.13922,23.13922,0,0,1,3.83036,2.103,6.74868,6.74868,0,0,1-1.01389,11.26717c-3.974,2.05167-8.05347,1.6458-12.04662-.134a.674.674,0,0,1-.31843-.56016C153.55977,76.62286,153.90867,75.63673,154.20522,74.74307Z"/>
    <path d="M97.79677,79.075V43.38045h4.40012V79.075Z"/>
    <path d="M41.75475,9.662h3.82052v4.57821l.22381.05168c1.53631-3.53266,3.96976-5.60907,8.05524-5.15919v4.16008c-.68713,0-1.32792-.04128-1.96184.0072-2.63214.20131-4.726,2.20843-5.35694,5.19528a14.78843,14.78843,0,0,0-.31456,2.90591c-.03473,3.88611-.01435,7.77271-.01435,11.65913v.908H41.75475Z"/>
    <path d="M56.509,54.71866c.12119-.01051.32117-.04191.52128-.04286,1.05073-.005,2.1015-.00235,3.31362-.00235V59.3083l.20225.05977c1.54285-3.51213,3.95216-5.61169,8.03358-5.13819V58.444a15.07167,15.07167,0,0,0-1.72343-.07c-2.9526.21362-5.06023,2.26151-5.6505,5.51588a15.22166,15.22166,0,0,0-.238,2.60688c-.02485,3.88656-.01082,7.77338-.01083,11.6601v.93213H56.509Z"/>
    <path d="M49.15576,79.08978H44.78765V54.7286h4.36811Z"/>
    <path d="M134.65205,33.98541h-4.3573V9.68144h4.3573Z"/>
    <path d="M46.85268,50.58127a2.60609,2.60609,0,0,1-2.65358-2.77154,2.73941,2.73941,0,0,1,2.807-2.76113,2.69974,2.69974,0,0,1,2.727,2.90254A2.62088,2.62088,0,0,1,46.85268,50.58127Z"/>
    <path d="M135.21839,2.87166A2.61561,2.61561,0,0,1,132.35,5.50795a2.64648,2.64648,0,0,1-2.66161-2.78424A2.69755,2.69755,0,0,1,132.587.00069,2.60764,2.60764,0,0,1,135.21839,2.87166Z"/>
  </g>
</svg>
