<svg xmlns="http://www.w3.org/2000/svg" viewBox="0 0 237.13606 190.17965" preserveAspectRatio="xMidYMid meet" class="icon" role="img" aria-labelledby="share-on-twitter">
  <title id="share-on-twitter">Share on Twitter</title>
  <path d="M237.13606,24.66c-8.60457,3.83318-15.8483,3.96208-23.53473.17011,9.91576-5.93783,10.369-10.10594,13.94968-21.32759a96.16165,96.16165,0,0,1-30.489,11.66435A48.06121,48.06121,0,0,0,115.251,58.95675,136.28708,136.28708,0,0,1,16.29206,8.78524,48.0703,48.0703,0,0,0,31.14931,72.89058,47.88238,47.88238,0,0,1,9.40967,66.88618c-.01057.20075-.01057.39726-.01057.60857A48.042,48.042,0,0,0,47.91576,114.5695a48.17769,48.17769,0,0,1-21.68788.83151,48.08851,48.08851,0,0,0,44.85176,33.33638A96.53693,96.53693,0,0,1,0,168.61539a135.96757,135.96757,0,0,0,73.59741,21.56426c88.311,0,136.58808-73.15366,136.58808-136.59865,0-2.08986-.03064-4.148-.12362-6.21148C219.43033,40.60652,230.69848,34.2915,237.13606,24.66Z"/>
</svg>
