<svg xmlns="http://www.w3.org/2000/svg" viewBox="0 0 111.8 111.8" preserveAspectRatio="xMidYMid" aria-labelledby="wireless-icon" role="img" >
	<title id="wireless-icon">wireless icon</title>
<g>
	<rect x="48.875" y="30.9375" width="14.0625" height="1"/>
	<path d="M67.87695,24.87502H43.88281c-3.31006,0-6.00293,2.69287-6.00293,6.00293v47.99414
		c0,3.30957,2.69287,6.00293,6.00293,6.00293h23.99414c3.30957,0,6.00293-2.69336,6.00293-6.00293V30.87794
		C73.87988,27.56789,71.18652,24.87502,67.87695,24.87502z M43.88281,26.87502h23.99414c2.20703,0,4.00293,1.7959,4.00293,4.00293
		v4.55957h-32v-4.55957C39.87988,28.67091,41.67578,26.87502,43.88281,26.87502z M71.87988,37.43752v34.9375h-32v-34.9375H71.87988z
		 M67.87695,82.87502H43.88281c-2.20703,0-4.00293-1.7959-4.00293-4.00293v-4.49707h32v4.49707
		C71.87988,81.07912,70.08398,82.87502,67.87695,82.87502z"/>
	<path d="M55.87988,65.25c-1.99902,0-3.625-1.62598-3.625-3.625S53.88086,58,55.87988,58s3.625,1.62598,3.625,3.625
		S57.87891,65.25,55.87988,65.25z M55.87988,59c-1.44727,0-2.625,1.17773-2.625,2.625s1.17773,2.625,2.625,2.625
		s2.625-1.17773,2.625-2.625S57.32715,59,55.87988,59z"/>
	<path d="M50.87012,56.15039l-0.86621-0.49951c0.06641-0.11572,1.67578-2.83838,5.77734-2.83838s5.71094,2.72266,5.77734,2.83838
		l-0.86719,0.49756c-0.05469-0.09277-1.40918-2.33594-4.91016-2.33594S50.92578,56.05566,50.87012,56.15039z"/>
	<path d="M47.79492,51.7207l-0.77734-0.62891c0.13818-0.1709,3.4458-4.17773,8.95947-4.17773
		c5.53271,0,8.46436,4.03076,8.58643,4.20215l-0.81445,0.58057c-0.02637-0.0376-2.76855-3.78271-7.77197-3.78271
		C50.93555,47.91406,47.82568,51.68262,47.79492,51.7207z"/>
	<path d="M44.35254,47.69287l-0.83008-0.55762c0.17041-0.25391,4.27148-6.22852,12.25879-6.22852
		c7.9707,0,12.3916,5.75928,12.5752,6.00439l-0.79883,0.60107c-0.04199-0.05615-4.31836-5.60547-11.77637-5.60547
		C48.32178,41.90674,44.3916,47.63477,44.35254,47.69287z"/>
</g>
<path d="M55.9,2c29.72057,0,53.9,24.17944,53.9,53.9s-24.17944,53.9-53.9,53.9S2,85.62057,2,55.9S26.17944,2,55.9,2 M55.9,0
	C25.02728,0,0,25.02728,0,55.9s25.02728,55.9,55.9,55.9s55.9-25.02728,55.9-55.9S86.77272,0,55.9,0L55.9,0z"/>
</svg>
